<svg xmlns="http://www.w3.org/2000/svg" viewBox="0 0 209.83 209.83"><defs><style>.cls-1{fill:#fff;}.cls-2{fill:#e4b733;}.cls-2,.cls-3,.cls-4,.cls-5{fill-rule:evenodd;}.cls-3{fill:#db8a2e;}.cls-4{fill:#a1642f;}.cls-5{fill:#815029;}</style></defs><title>normal</title><g id="Layer_2" data-name="Layer 2"><g id="Layer_1-2" data-name="Layer 1"><circle class="cls-1" cx="104.91" cy="104.91" r="104.89"/><path class="cls-2" d="M107.14,16.72A88.19,88.19,0,1,1,19,104.91a88.28,88.28,0,0,1,88.19-88.19Z"/><path class="cls-3" d="M107.14,16.72a88.19,88.19,0,1,1,0,176.38Z"/><path class="cls-4" d="M107.14,42.75c25.13,0,45.48,39.92,45.48,74.17,0,66.84-91,66.84-91,0,0-34.25,20.35-74.17,45.49-74.17Z"/><path class="cls-5" d="M107.14,42.75c25.13,0,45.48,39.92,45.48,74.17,0,33.37-22.68,50.16-45.48,50.16Z"/></g></g></svg>