<svg xmlns="http://www.w3.org/2000/svg" viewBox="0 0 209.83 209.83"><defs><style>.cls-1{fill:#fff;}.cls-2{fill:#a63b91;}.cls-2,.cls-3,.cls-4,.cls-5{fill-rule:evenodd;}.cls-3{fill:#98247f;}.cls-4{fill:#e4b733;}.cls-5{fill:#db8a2e;}</style></defs><title>psychic_1</title><g id="Layer_2" data-name="Layer 2"><g id="Layer_1-2" data-name="Layer 1"><circle class="cls-1" cx="104.91" cy="104.91" r="104.89"/><path class="cls-2" d="M104.36,16.74a88.19,88.19,0,1,1-88.3,88.19,88.18,88.18,0,0,1,88.3-88.19Z"/><path class="cls-3" d="M104.36,16.74a88.19,88.19,0,0,1,0,176.38Z"/><path class="cls-4" d="M103.91,56.22h.78c42.15,0,76.18,39.92,76.18,48.71s-34,48.71-76.18,48.71h-.78c-42.15,0-76.18-39.93-76.18-48.71s34-48.71,76.18-48.71Zm.45,27.36A21.35,21.35,0,1,1,83,104.93a21.35,21.35,0,0,1,21.35-21.35ZM104,68.78l.34.12.22-.12c32.7,0,59.16,29.7,59.16,36.15s-26.46,36.14-59.16,36.14l-.22-.11-.34.11c-32.69,0-59.16-29.69-59.16-36.14S71.33,68.78,104,68.78Z"/><path class="cls-5" d="M104.36,56.22h.33c42.15,0,76.18,39.92,76.18,48.71s-34,48.71-76.18,48.71h-.33V141l.22.11c32.7,0,59.16-29.69,59.16-36.14s-26.46-36.15-59.16-36.15l-.22.12Zm0,70.06V83.58a21.35,21.35,0,0,1,0,42.7Z"/></g></g></svg>