<svg xmlns="http://www.w3.org/2000/svg" viewBox="0 0 209.83 209.83"><defs><style>.cls-1{fill:#fff;}.cls-2{fill:#a39d95;}.cls-2,.cls-3,.cls-4,.cls-5{fill-rule:evenodd;}.cls-3{fill:#8b7e6c;}.cls-4{fill:#867d71;}.cls-5{fill:#6d5c46;}</style></defs><title>rock_2</title><g id="Layer_2" data-name="Layer 2"><g id="Layer_1-2" data-name="Layer 1"><circle class="cls-1" cx="104.91" cy="104.91" r="104.89"/><path class="cls-2" d="M104.58,18.28a88.25,88.25,0,1,1-88.3,88.19,88.18,88.18,0,0,1,88.3-88.19Z"/><path class="cls-3" d="M104.58,18.28a88.25,88.25,0,0,1,0,176.49Z"/><path class="cls-4" d="M54.2,151.29c-10.45-3-10.9-6-7.56-14,12.68-31,31.25-60,47.82-77.74,3.11-3.33,7.45-2.78,11,0,5.23,3.9,6.12,10.46,11,17,1.78,2.44,14.68,2,16.46,4.67,1.56,2.33,3.22,4.89,4.78,7.56,1.89,3.23,3.67,6.45,5.34,9.45,3.67,6.57,4.34,8.68.33,15.24l-21.35,35c-3.34,5.45-6.23,7.23-12.57,7.23-21.35.33-43.59-1.22-55.27-4.45Zm102.87-26.24c1.89,4,3.67,8.11,5.34,12.23,3.34,8,3,11-7.56,14a101.33,101.33,0,0,1-16.8,2.89c-6,.67-5.22-2.78-2.66-6.78l11.23-18.68c5.22-8.46,6.11-12.9,10.45-3.67Z"/><path class="cls-5" d="M104.58,58.88a3.62,3.62,0,0,1,.89.66c5.23,3.9,6.12,10.46,11,17,1.78,2.44,14.68,2,16.46,4.67,1.56,2.33,3.22,4.89,4.78,7.56,1.89,3.23,3.67,6.45,5.34,9.45,3.67,6.57,4.34,8.68.33,15.24l-21.35,35c-3.34,5.45-6.23,7.23-12.57,7.23-1.66.11-3.33.11-4.89.11Zm25.13-4.12c4.56,0,10.57,4.78,10.57,9.12s-5.9,9.56-10.45,9.56-6.12-5.33-6.12-9.56,1.33-9.12,6-9.12Zm27.36,70.29c1.89,4,3.67,8.11,5.34,12.23,3.34,8,3,11-7.56,14a101.33,101.33,0,0,1-16.8,2.89c-6,.67-5.22-2.78-2.66-6.78l11.23-18.68c5.22-8.46,6.11-12.9,10.45-3.67Z"/></g></g></svg>