<svg xmlns="http://www.w3.org/2000/svg" viewBox="0 0 209.83 209.83"><defs><style>.cls-1,.cls-6{fill:#fff;}.cls-2{fill:#65addc;}.cls-2,.cls-3,.cls-4,.cls-5,.cls-6{fill-rule:evenodd;}.cls-3{fill:#4c86b0;}.cls-4{fill:#d2eaf8;}.cls-5{fill:#8cccf4;}</style></defs><title>water_3</title><g id="Layer_2" data-name="Layer 2"><g id="Layer_1-2" data-name="Layer 1"><circle class="cls-1" cx="104.91" cy="104.91" r="104.89"/><path class="cls-2" d="M104.85,19.1a88.25,88.25,0,1,1-88.19,88.19A88.21,88.21,0,0,1,104.85,19.1Z"/><path class="cls-3" d="M104.85,19.1a88.25,88.25,0,1,1,0,176.49Z"/><path class="cls-4" d="M141.33,51.57c-16.57,2.11-33.81,9.23-47.93,19.35-49.05,35.14-32.7,92.31,17,86.41,21-2.45,32.7-19,32.25-35.48-.22-8.67-3.67-15.23-11-24.13-13.23-15.79-5-33.47,11.46-42.59,4.78-2.67,3.22-4.23-1.78-3.56Z"/><path class="cls-5" d="M141.33,51.57a107,107,0,0,0-36.48,12.12v94.09a47.34,47.34,0,0,0,5.56-.45c21-2.45,32.7-19,32.25-35.48-.22-8.67-3.67-15.23-11-24.13-13.23-15.79-5-33.47,11.46-42.59,4.78-2.67,3.22-4.23-1.78-3.56Z"/><path class="cls-6" d="M121.31,96.94c3.23,0,5.78,3.23,5.78,7.23s-2.55,7.34-5.78,7.34-5.78-3.22-5.78-7.34,2.56-7.23,5.78-7.23Z"/><path class="cls-6" d="M129,112.07a2.54,2.54,0,0,1,2.22,2.78,2.5,2.5,0,0,1-2.22,2.67,2.42,2.42,0,0,1-2.12-2.67c0-1.56.89-2.78,2.12-2.78Z"/></g></g></svg>