<svg xmlns="http://www.w3.org/2000/svg" viewBox="0 0 209.83 209.83"><defs><style>.cls-1{fill:#fff;}.cls-2{fill:#7cb851;}.cls-2,.cls-3,.cls-4,.cls-5{fill-rule:evenodd;}.cls-3{fill:#699d4d;}.cls-4{fill:#e7e769;}.cls-5{fill:#c4d244;}</style></defs><title>bug</title><g id="Layer_2" data-name="Layer 2"><g id="Layer_1-2" data-name="Layer 1"><circle class="cls-1" cx="104.91" cy="104.91" r="104.89"/><path class="cls-2" d="M104.36,18.23a88.25,88.25,0,1,1-88.19,88.3,88.23,88.23,0,0,1,88.19-88.3Z"/><path class="cls-3" d="M104.36,18.23a88.25,88.25,0,1,1,0,176.49Z"/><path class="cls-4" d="M121.71,80.17a36,36,0,0,1,6.56,4h0l5.89-5.89h0a3.49,3.49,0,0,1,4.9,0h0L145,84.17a3.51,3.51,0,0,1,0,4.9h0a3.36,3.36,0,0,1-4.78,0l-3.56-3.56L133.05,89a35.56,35.56,0,0,1,7.45,18.57l1-1h0a3.34,3.34,0,0,1,4.78,0h0l6,5.89a3.36,3.36,0,0,1,0,4.78h0a3.34,3.34,0,0,1-4.78,0L144,113.76l-3.23,3.11a51.8,51.8,0,0,1-3.78,17l4.23.12h0a3.44,3.44,0,0,1,3.45,3.33h0l-.11,8.45a3.38,3.38,0,0,1-3.45,3.34h0a3.43,3.43,0,0,1-3.34-3.34v-5l-4.11-.11c-6.68,11-17.24,18.13-29.25,18.13s-22.47-7.12-29.14-18.13l-4.11.11v5a3.43,3.43,0,0,1-3.34,3.34h0a3.38,3.38,0,0,1-3.45-3.34l-.11-8.45h0A3.44,3.44,0,0,1,67.66,134h0l4.22-.12a52.31,52.31,0,0,1-3.78-17l-3.22-3.11-3.56,3.44a3.34,3.34,0,0,1-4.78,0h0a3.34,3.34,0,0,1,0-4.78l6-5.89h0a3.34,3.34,0,0,1,4.78,0h0l1,1A35.47,35.47,0,0,1,75.78,89l-3.56-3.45-3.56,3.56a3.36,3.36,0,0,1-4.78,0h0a3.49,3.49,0,0,1,0-4.9l5.89-5.89h0a3.34,3.34,0,0,1,4.78,0h0l6,5.89h0a36,36,0,0,1,6.56-4,9.9,9.9,0,0,1-.22-1.89c0-5.89,3-12.79,8.56-16.35L92.57,59l-2.11,2.11a1.94,1.94,0,0,1-2.78,0h0a1.9,1.9,0,0,1,0-2.89l3.44-3.45h0a2.11,2.11,0,0,1,2.9,0h0l5.33,5.34a16.8,16.8,0,0,1,10.12,0l5.34-5.34h0a2.1,2.1,0,0,1,2.89,0h0l3.45,3.45a1.9,1.9,0,0,1,0,2.89h0a1.94,1.94,0,0,1-2.78,0L116.26,59l-2.89,2.89c5.56,3.56,8.56,10.46,8.56,16.35a9.9,9.9,0,0,1-.22,1.89Z"/><path class="cls-5" d="M121.71,80.17a36,36,0,0,1,6.56,4h0l5.89-5.89h0a3.49,3.49,0,0,1,4.9,0h0L145,84.17a3.51,3.51,0,0,1,0,4.9h0a3.36,3.36,0,0,1-4.78,0l-3.56-3.56L133.05,89a35.56,35.56,0,0,1,7.45,18.57l1-1h0a3.34,3.34,0,0,1,4.78,0h0l6,5.89a3.36,3.36,0,0,1,0,4.78h0a3.34,3.34,0,0,1-4.78,0L144,113.76l-3.23,3.11a51.8,51.8,0,0,1-3.78,17l4.23.12h0a3.44,3.44,0,0,1,3.45,3.33h0l-.11,8.45a3.38,3.38,0,0,1-3.45,3.34h0a3.43,3.43,0,0,1-3.34-3.34v-5l-4.11-.11c-6.68,11-17.24,18.13-29.25,18.13V59.37a15.06,15.06,0,0,1,5.11.78l5.34-5.34h0a2.1,2.1,0,0,1,2.89,0h0l3.45,3.45a1.9,1.9,0,0,1,0,2.89h0a1.94,1.94,0,0,1-2.78,0L116.26,59l-2.89,2.89c5.56,3.56,8.56,10.46,8.56,16.35a9.9,9.9,0,0,1-.22,1.89Z"/></g></g></svg>