<svg xmlns="http://www.w3.org/2000/svg" viewBox="0 0 209.83 209.83"><defs><style>.cls-1{fill:#fff;}.cls-2{fill:#7cb851;}.cls-2,.cls-3,.cls-4,.cls-5{fill-rule:evenodd;}.cls-3{fill:#699d4d;}.cls-4{fill:#e7e769;}.cls-5{fill:#c4d244;}</style></defs><title>dragon</title><g id="Layer_2" data-name="Layer 2"><g id="Layer_1-2" data-name="Layer 1"><circle class="cls-1" cx="104.91" cy="104.91" r="104.89"/><path class="cls-2" d="M105.8,17.28a88.19,88.19,0,1,1-88.19,88.19A88.2,88.2,0,0,1,105.8,17.28Z"/><path class="cls-3" d="M105.8,17.28a88.19,88.19,0,1,1,0,176.38Z"/><path class="cls-4" d="M85.56,46.75c45.15-26.24,100.76,12.46,88,68.84-13.68,59.61-72.06,67.06-118,46.93-10.46-4.56-10-13.34-1.45-20,45-34.7,49.38-55.16,52.27-55.5,4-.44-1.22,32.14,7.9,35,9.89,3,27.13-15.46,26.69-38.92s-24.36-37.26-55.28-32c-7.67,1.22-7.11-.33-.11-4.34Zm16.91,83.3c-5.79,5.12-5.23,4.89-16.35,15.12-6.23,5.68-8.12,6.9-6.9,7.23,2.78.89,26.36.23,21.8-16.79-.22-.78,1.67-3.78,2.34-5.34s-.23-.89-.89-.22Z"/><path class="cls-5" d="M105.8,39.3c39.82-7,78.63,28.14,67.73,76.29-8.9,38.7-36.7,55.39-67.73,56.83V87.23a2,2,0,0,1,.56-.22c4-.44-1.22,32.14,7.9,35,9.89,3,27.13-15.46,26.69-38.92-.34-18-14.46-30.36-35.15-32.7Z"/></g></g></svg>