<svg xmlns="http://www.w3.org/2000/svg" viewBox="0 0 209.83 209.83"><defs><style>.cls-1,.cls-4{fill:#fff;}.cls-2{fill:#e4b733;}.cls-2,.cls-3,.cls-4,.cls-5{fill-rule:evenodd;}.cls-3{fill:#dd9530;}.cls-5{fill:#f2ca30;}</style></defs><title>electric</title><g id="Layer_2" data-name="Layer 2"><g id="Layer_1-2" data-name="Layer 1"><circle class="cls-1" cx="104.91" cy="104.91" r="104.89"/><path class="cls-2" d="M104.86,17.28a88.19,88.19,0,1,1-88.19,88.19,88.21,88.21,0,0,1,88.19-88.19Z"/><path class="cls-3" d="M104.86,17.28a88.19,88.19,0,1,1,0,176.38Z"/><path class="cls-4" d="M53.48,131.5l58.61-90.64c3.89-6.12,4.78-6.9,2.78.67L100.63,94.8l54.5-18.69c2.33-.89,2.33,1.56,1.22,3.34L97.74,170.09C93.85,176.2,93,177,95,169.42l14.24-53.27L54.7,134.83c-2.33.89-2.33-1.55-1.22-3.33Z"/><path class="cls-5" d="M104.86,51.87l7.23-11c3.89-6.12,4.78-6.9,2.78.67l-10,37.25Zm0,41.48,50.27-17.24c2.33-.89,2.33,1.56,1.22,3.34l-51.49,79.63V132.16l4.34-16-4.34,1.44Z"/></g></g></svg>