<svg xmlns="http://www.w3.org/2000/svg" viewBox="0 0 209.83 209.83"><defs><style>.cls-1{fill:#fff;}.cls-2{fill:#f0e197;}.cls-2,.cls-3,.cls-4,.cls-5{fill-rule:evenodd;}.cls-3{fill:#eecc87;}.cls-4{fill:#65addc;}.cls-5{fill:#4c86b0;}</style></defs><title>fairy</title><g id="Layer_2" data-name="Layer 2"><g id="Layer_1-2" data-name="Layer 1"><circle class="cls-1" cx="104.91" cy="104.91" r="104.89"/><path class="cls-2" d="M107.14,16.61A88.25,88.25,0,1,1,19,104.91a88.3,88.3,0,0,1,88.19-88.3Z"/><path class="cls-3" d="M107.14,16.61a88.25,88.25,0,1,1,0,176.49Z"/><path class="cls-4" d="M56.76,58.43C55,63.21,81.56,95.35,81.34,108.25c-.11,6.23-30.36,16.57-22.91,18.68,4.89,1.45,22.57-1.33,21.46,3.34S66.66,153.07,70.33,152c7.34-2.34,23.91-13.24,33.14-26.92,3.11-4.67,4.22-4.78,7.45,0,9.12,13.79,25.69,24.58,33.14,26.92,3.56,1.11-8.45-17-9.56-21.69s16.57-1.89,21.46-3.34c7.45-2.11-22.8-12.45-22.91-18.68-.33-12.9,26.36-45,24.47-49.82-1.67-4.45-30.25,14.68-45.15,30.14-5,5.11-5.9,4.67-10.35,0C87.12,73.11,58.43,54,56.76,58.43Z"/><path class="cls-5" d="M107.14,121.48c1.11,0,2.22,1.23,3.78,3.56,9.12,13.79,25.69,24.58,33.14,26.92,3.56,1.11-8.45-17-9.56-21.69s16.57-1.89,21.46-3.34c7.45-2.11-22.8-12.45-22.91-18.68-.33-12.9,26.36-45,24.47-49.82-1.67-4.45-30.25,14.68-45.15,30.14-2.34,2.44-3.79,3.55-5.23,3.67Z"/></g></g></svg>