<svg xmlns="http://www.w3.org/2000/svg" viewBox="0 0 209.78 209.78"><defs><style>.cls-1{fill:#fff;}.cls-2{fill:#9e2429;}.cls-2,.cls-3,.cls-4,.cls-5{fill-rule:evenodd;}.cls-3{fill:#7a1e20;}.cls-4{fill:#e7e769;}.cls-5{fill:#c4d244;}</style></defs><title>fighting</title><g id="Layer_2" data-name="Layer 2"><g id="Layer_1-2" data-name="Layer 1"><circle class="cls-1" cx="104.89" cy="104.89" r="104.89"/><path class="cls-2" d="M104.83,19.4a88.25,88.25,0,1,1-88.19,88.3,88.23,88.23,0,0,1,88.19-88.3Z"/><path class="cls-3" d="M104.83,19.4a88.25,88.25,0,1,1,0,176.49Z"/><path class="cls-4" d="M67.57,52.21h0A10.65,10.65,0,0,1,78.14,62.88v21A10.64,10.64,0,0,1,67.57,94.47h0A10.66,10.66,0,0,1,56.9,83.9v-21A10.67,10.67,0,0,1,67.57,52.21Zm53.27,93.63a8.69,8.69,0,0,1,8.68,8.68v7a8.85,8.85,0,0,1-8.68,8.78H91.26a8.78,8.78,0,0,1-8.67-8.78v-7a8.69,8.69,0,0,1,8.67-8.68Zm23.25-46.7a8.78,8.78,0,0,1,8.78,8.67v24.8a8.88,8.88,0,0,1-8.78,8.79H102.61a8.29,8.29,0,0,1,0-16.57h10.56v-17a8.68,8.68,0,0,1,8.68-8.67Zm-78.41,0a8.78,8.78,0,0,0-8.78,8.67v24.8a8.88,8.88,0,0,0,8.78,8.79H81.14a8.79,8.79,0,0,0,8.68-8.79V120.38h8.23a10.62,10.62,0,1,0,0-21.24Zm77.74-42.26h0a9.51,9.51,0,0,1,9.45,9.45V85a9.52,9.52,0,0,1-9.45,9.46h0A9.44,9.44,0,0,1,134,85V66.33a9.44,9.44,0,0,1,9.45-9.45ZM93.26,45.09h0a10.63,10.63,0,0,1,10.57,10.56V83.9A10.64,10.64,0,0,1,93.26,94.47h0A10.66,10.66,0,0,1,82.59,83.9V55.65A10.65,10.65,0,0,1,93.26,45.09Zm25.58,7.12h0a10.68,10.68,0,0,1,10.68,10.67v21a10.66,10.66,0,0,1-10.68,10.57h0A10.64,10.64,0,0,1,108.28,83.9v-21a10.65,10.65,0,0,1,10.56-10.67Z"/><path class="cls-5" d="M104.83,170.2V145.84h16a8.69,8.69,0,0,1,8.68,8.68v7a8.75,8.75,0,0,1-8.68,8.67Zm0-28.8V124.83h8.34v-17a8.68,8.68,0,0,1,8.68-8.67h22.24a8.78,8.78,0,0,1,8.78,8.67v24.8a8.88,8.88,0,0,1-8.78,8.79Zm0-23.47V101.58a10.53,10.53,0,0,1,0,16.35Zm38.59-61h0a9.51,9.51,0,0,1,9.45,9.45V85a9.52,9.52,0,0,1-9.45,9.46h0A9.44,9.44,0,0,1,134,85V66.33a9.44,9.44,0,0,1,9.45-9.45Zm-24.58-4.67h0a10.68,10.68,0,0,1,10.68,10.67v21a10.66,10.66,0,0,1-10.68,10.57h0A10.64,10.64,0,0,1,108.28,83.9v-21a10.65,10.65,0,0,1,10.56-10.67Z"/></g></g></svg>