<svg xmlns="http://www.w3.org/2000/svg" viewBox="0 0 209.83 209.83"><defs><style>.cls-1{fill:#fff;}.cls-2{fill:#db8a2e;}.cls-2,.cls-3,.cls-4,.cls-5,.cls-6{fill-rule:evenodd;}.cls-3{fill:#d76f2c;}.cls-4{fill:#9e2429;}.cls-5{fill:#7a1e20;}.cls-6{fill:#e4b733;}</style></defs><title>fire_2</title><g id="Layer_2" data-name="Layer 2"><g id="Layer_1-2" data-name="Layer 1"><circle class="cls-1" cx="104.91" cy="104.91" r="104.89"/><path class="cls-2" d="M105.47,19.1a88.25,88.25,0,1,1-88.19,88.19A88.21,88.21,0,0,1,105.47,19.1Z"/><path class="cls-3" d="M105.47,19.1a88.25,88.25,0,1,1,0,176.49Z"/><path class="cls-4" d="M47.86,127.75c2.56.89,3.34,6.34,8.23,5.89,2.45-.22,2-.78,1-2.89-2.78-6.12-10-22.57-3.78-33.92,7.79-14,14.35-19.9,15-23.35s4.67,4.67,0,14c-3,5.89-1.12,10.45.66,13,3,4.12,1.89,1.67,2.23-1.55.67-6.12,3.89-18.35,18.57-26.7C110,60.8,93.24,42.45,96.57,40.89s23.69,6.79,30.59,31.7-.67,32,3.33,33.58,25.58-13,28.36-18.9c.67-1.34,1.56-.89,2.34.89,2.56,5.78,3.89,24.91-10.23,37.36-1.45,1.23-2.78,2.9.11,2.67,4.67-.22,12.45-1.55,18.12-6.78,3.23-2.78,4.68-7.78,3.9.67-.56,5.78-3.78,15.23-17.57,22.57-9.57,5.12-16,15.79-26.81,22.69-11.34,7.23-27.69,8.34-40.37,4.34-16-4.9-12-17.46-28.58-25.25-8.78-4.11-12.9-14.46-13-17.79,0-.89.22-1.11,1.11-.89Z"/><path class="cls-5" d="M105.47,43.45c7.45,4.12,17.24,13.24,21.69,29.14,6.78,24.91-.67,32,3.33,33.58s25.58-13,28.36-18.9c.67-1.34,1.56-.89,2.34.89,2.56,5.78,3.89,24.91-10.23,37.36-1.45,1.23-2.78,2.9.11,2.67,4.67-.22,12.45-1.55,18.12-6.78,3.23-2.78,4.68-7.78,3.9.67-.56,5.78-3.78,15.23-17.57,22.57-9.57,5.12-16,15.79-26.81,22.69-6.56,4.23-14.9,6.34-23.24,6.67Z"/><path class="cls-6" d="M102.58,170.12s-15.35-.44-19.46-9,4.11-10.67.89-15.23-5.56-8.57-2.12-7.34,13,7.78,13.46,2.22-5-13.23-.11-19.13,9.9-7.45,10.12-14.46,6,4,2.45,9.57-7,7.23-1.34,11.34,7,2.34,6.67,7.34,7.23,7.79,11.46,1-2.11-16-.89-15.79,8.9,12.35,4.67,20.13c-2,3.67-1.89,5.23-1.22,6.78,8.12,18.8-9.12,23-24.58,22.58Z"/><path class="cls-2" d="M105.47,105.62c1-3.45,5.56,6.11,2.34,11.12a30.16,30.16,0,0,1-2.34,3.34Zm0,21.8,1,.66c5.56,4.23,7,2.34,6.67,7.34s7.23,7.79,11.46,1-2.11-16-.89-15.79,8.9,12.35,4.67,20.13c-2,3.67-1.89,5.23-1.22,6.78,7.56,17.58-7,22.36-21.69,22.58Z"/></g></g></svg>