<svg xmlns="http://www.w3.org/2000/svg" viewBox="0 0 209.83 209.83"><defs><style>.cls-1,.cls-4{fill:#fff;}.cls-2{fill:#65addc;}.cls-2,.cls-3,.cls-4,.cls-5{fill-rule:evenodd;}.cls-3{fill:#4c86b0;}.cls-5{fill:#e4e5e6;}</style></defs><title>flying</title><g id="Layer_2" data-name="Layer 2"><g id="Layer_1-2" data-name="Layer 1"><circle class="cls-1" cx="104.91" cy="104.91" r="104.89"/><path class="cls-2" d="M107.25,16.61A88.25,88.25,0,1,1,19,104.91a88.21,88.21,0,0,1,88.3-88.3Z"/><path class="cls-3" d="M107.25,16.61a88.25,88.25,0,0,1,0,176.49Z"/><path class="cls-4" d="M72.89,101.8c51.71-38.7,80.18-60.94,88.52-55.94,8.23,4.78-26.8,39.48-25.13,45.15s28.58,5.9,28.8,10.12-23.91,9.9-25.69,14.68,25.69,13.35,25.47,19.24-32.48-2.22-34.48,2,5.34,18.24.45,21.58-24.69-14.24-28.7-11.12-5,18.9-26.24,16.9c-14.24-1.33-24.91-11.9-26.36-25-1.89-17.57,10.79-28.25,23.36-37.59Z"/><path class="cls-5" d="M107.25,76.11c30.25-22.35,47.82-34,54.16-30.25,8.23,4.78-26.8,39.48-25.13,45.15s28.58,5.9,28.8,10.12-23.91,9.9-25.69,14.68,25.69,13.35,25.47,19.24-32.48-2.22-34.48,2,5.34,18.24.45,21.58c-3.9,2.56-16.24-7.12-23.58-10.45Z"/></g></g></svg>