<svg xmlns="http://www.w3.org/2000/svg" viewBox="0 0 209.83 209.83"><defs><style>.cls-1,.cls-4{fill:#fff;}.cls-2{fill:#867d71;}.cls-2,.cls-3,.cls-4,.cls-5{fill-rule:evenodd;}.cls-3{fill:#6d5c46;}.cls-5{fill:#e4e5e6;}</style></defs><title>ghost</title><g id="Layer_2" data-name="Layer 2"><g id="Layer_1-2" data-name="Layer 1"><circle class="cls-1" cx="104.91" cy="104.91" r="104.89"/><path class="cls-2" d="M104.91,17.28a88.19,88.19,0,1,1-88.3,88.19,88.18,88.18,0,0,1,88.3-88.19Z"/><path class="cls-3" d="M104.91,17.28a88.19,88.19,0,0,1,0,176.38Z"/><path class="cls-4" d="M25.73,108.81c-1.22,15.35,8.12-15.24,29.81-23.24,40.14-14.79,47,26,60.94,41.26,34.7,37.7,73.84-8.79,55.83-50.38C143.17,8.5,32.18,30.52,25.73,108.81Zm81.63,39.37c-.11,3.78,3.78,2.67,6,2.44a3,3,0,0,1,2.55.78c2,2.34,4-.66,7.34.78,7.68,3.23,4.79-13.46-5.22-13.9-4.56-.22-10.46,2.56-10.68,9.9Zm36.81-21.24c-5.67,6.67-16.79,2.67-22.35-2.23a13.09,13.09,0,0,1-1.67-18.46c5.78-6.78,29.8,14.12,24,20.69Zm13.68-1.23c4.12-.44,9.23-6,10.45-11.23,1.45-5.89-1.66-11.57-6.89-12.68-8.34-1.55-11.68,24.69-3.56,23.91Z"/><path class="cls-5" d="M104.91,108.7c3.9,6.89,7.46,13.57,11.57,18.13,34.7,37.7,73.84-8.79,55.83-50.38-12.46-29-39.7-41.6-67.4-40.48Zm2.45,39.48c-.11,3.78,3.78,2.67,6,2.44a3,3,0,0,1,2.55.78c2,2.34,4-.66,7.34.78,7.68,3.23,4.79-13.46-5.22-13.9-4.56-.22-10.46,2.56-10.68,9.9Zm36.81-21.24c-5.67,6.67-16.79,2.67-22.35-2.23a13.09,13.09,0,0,1-1.67-18.46c5.78-6.78,29.8,14.12,24,20.69Zm13.68-1.23c4.12-.44,9.23-6,10.45-11.23,1.45-5.89-1.66-11.57-6.89-12.68-8.34-1.55-11.68,24.69-3.56,23.91Z"/></g></g></svg>