<svg xmlns="http://www.w3.org/2000/svg" viewBox="0 0 209.83 209.83"><defs><style>.cls-1{fill:#fff;}.cls-2{fill:#7cb851;}.cls-2,.cls-3,.cls-4,.cls-5{fill-rule:evenodd;}.cls-3{fill:#699d4d;}.cls-4{fill:#e7e769;}.cls-5{fill:#c4d244;}</style></defs><title>grass_2</title><g id="Layer_2" data-name="Layer 2"><g id="Layer_1-2" data-name="Layer 1"><circle class="cls-1" cx="104.91" cy="104.91" r="104.89"/><path class="cls-2" d="M104.36,18.28a88.25,88.25,0,1,1-88.19,88.19,88.21,88.21,0,0,1,88.19-88.19Z"/><path class="cls-3" d="M104.36,18.28a88.25,88.25,0,1,1,0,176.49Z"/><path class="cls-4" d="M100.58,44.42c-17.24,14-68.06,77.07-8.57,110.21,13.13,7.34,8.79,23.13,8.79,23.13a24.94,24.94,0,0,0,7,0s-4.34-15.68,8.78-23.13C184.21,116,121,91,108.14,44.53c-1.11-4-4.56-2.56-7.56-.11Z"/><path class="cls-5" d="M104.36,178a27.16,27.16,0,0,0,3.45-.22s-4.34-15.68,8.78-23.13C184.21,116,121,91,108.14,44.53c-.67-2.34-2.11-2.78-3.78-2.34Z"/></g></g></svg>