<svg xmlns="http://www.w3.org/2000/svg" viewBox="0 0 209.83 209.83"><defs><style>.cls-1,.cls-4{fill:#fff;}.cls-2{fill:#8cccf4;}.cls-2,.cls-3,.cls-4,.cls-5{fill-rule:evenodd;}.cls-3{fill:#65addc;}.cls-5{fill:#d2eaf8;}</style></defs><title>ice</title><g id="Layer_2" data-name="Layer 2"><g id="Layer_1-2" data-name="Layer 1"><circle class="cls-1" cx="104.91" cy="104.91" r="104.89"/><path class="cls-2" d="M105.91,16.72a88.19,88.19,0,1,1-88.19,88.19,88.21,88.21,0,0,1,88.19-88.19Z"/><path class="cls-3" d="M105.91,16.72a88.19,88.19,0,1,1,0,176.38Z"/><path class="cls-4" d="M105.69,41.08h0A5.44,5.44,0,0,1,111,46.53v5.34l1.78-1.78a5.42,5.42,0,0,1,7.67,0h0a5.65,5.65,0,0,1,0,7.67L111,67.1V95.68l25.13-14.45,3.45-12.79a5.44,5.44,0,0,1,6.56-3.9h0a5.5,5.5,0,0,1,3.89,6.68l-.66,2.33,4.67-2.67a5.24,5.24,0,0,1,7.34,2h0a5.29,5.29,0,0,1-1.89,7.34l-4.67,2.66,2.33.67A5.36,5.36,0,0,1,161,90.12h0A5.39,5.39,0,0,1,154.4,94l-12.79-3.45-24.46,14.12,24,13.9L154,115.15a5.49,5.49,0,0,1,6.67,3.89h0a5.45,5.45,0,0,1-3.78,6.56l-2.45.67,4.67,2.67a5.41,5.41,0,0,1,2,7.34h0a5.35,5.35,0,0,1-7.45,2l-4.56-2.67.56,2.33a5.43,5.43,0,0,1-3.78,6.68h0a5.49,5.49,0,0,1-6.67-3.9l-3.34-12.79L111,113.7v29l9.45,9.34a5.65,5.65,0,0,1,0,7.67h0a5.44,5.44,0,0,1-7.67,0L111,158v5.34a5.44,5.44,0,0,1-5.34,5.45h0a5.46,5.46,0,0,1-5.45-5.45V158l-1.78,1.78a5.31,5.31,0,0,1-7.56,0h0a5.44,5.44,0,0,1,0-7.67l9.34-9.34V114.48l-24.13,13.9-3.34,12.79A5.42,5.42,0,0,1,66.1,145h0a5.36,5.36,0,0,1-3.78-6.56l.56-2.45-4.68,2.78a5.42,5.42,0,0,1-7.34-2h0a5.59,5.59,0,0,1,2-7.45l4.56-2.67L55.09,126a5.51,5.51,0,0,1-3.78-6.67h0A5.58,5.58,0,0,1,58,115.48l12.79,3.45,24.69-14.24L70.33,90.23,57.54,93.68A5.4,5.4,0,0,1,51,89.79h0a5.42,5.42,0,0,1,3.78-6.67l2.33-.56-4.67-2.67a5.44,5.44,0,0,1-1.89-7.45h0a5.42,5.42,0,0,1,7.34-2l4.67,2.67-.67-2.34a5.46,5.46,0,0,1,3.79-6.56h0A5.42,5.42,0,0,1,72.33,68l3.45,12.79,24.46,14.13V67.1L90.9,57.76a5.44,5.44,0,0,1,0-7.67h0a5.29,5.29,0,0,1,7.56,0l1.78,1.78V46.53a5.46,5.46,0,0,1,5.45-5.45Z"/><path class="cls-5" d="M105.91,41.08A5.39,5.39,0,0,1,111,46.53v5.34l1.78-1.78a5.42,5.42,0,0,1,7.67,0h0a5.65,5.65,0,0,1,0,7.67L111,67.1V95.68l25.13-14.45,3.45-12.79a5.44,5.44,0,0,1,6.56-3.9h0a5.5,5.5,0,0,1,3.89,6.68l-.66,2.33,4.67-2.67a5.24,5.24,0,0,1,7.34,2h0a5.29,5.29,0,0,1-1.89,7.34l-4.67,2.66,2.33.67A5.36,5.36,0,0,1,161,90.12h0A5.39,5.39,0,0,1,154.4,94l-12.79-3.45-24.46,14.12,24,13.9L154,115.15a5.49,5.49,0,0,1,6.67,3.89h0a5.45,5.45,0,0,1-3.78,6.56l-2.45.67,4.67,2.67a5.41,5.41,0,0,1,2,7.34h0a5.35,5.35,0,0,1-7.45,2l-4.56-2.67.56,2.33a5.43,5.43,0,0,1-3.78,6.68h0a5.49,5.49,0,0,1-6.67-3.9l-3.34-12.79L111,113.7v29l9.45,9.34a5.65,5.65,0,0,1,0,7.67h0a5.44,5.44,0,0,1-7.67,0L111,158v5.34a5.39,5.39,0,0,1-5.12,5.45Z"/></g></g></svg>