<svg xmlns="http://www.w3.org/2000/svg" viewBox="0 0 209.83 209.83"><defs><style>.cls-1,.cls-4{fill:#fff;}.cls-2{fill:#9e2429;}.cls-2,.cls-3,.cls-4,.cls-5{fill-rule:evenodd;}.cls-3{fill:#7a1e20;}.cls-5{fill:#e4e5e6;}</style></defs><title>poison</title><g id="Layer_2" data-name="Layer 2"><g id="Layer_1-2" data-name="Layer 1"><circle class="cls-1" cx="104.91" cy="104.91" r="104.89"/><path class="cls-2" d="M107.58,16.67A88.25,88.25,0,1,1,19.39,105a88.23,88.23,0,0,1,88.19-88.3Z"/><path class="cls-3" d="M107.58,16.67a88.25,88.25,0,1,1,0,176.49Z"/><path class="cls-4" d="M107.58,44.69a38.56,38.56,0,0,1,23.47,69.18c-5.67,21.57-41.15,21.57-46.93,0a38.61,38.61,0,0,1,23.46-69.18Zm54.83,87h0a5.6,5.6,0,0,1-3.89,6.78l-29.47,7.9,29.47,7.9a5.55,5.55,0,0,1,3.89,6.78h0a5.6,5.6,0,0,1-6.78,3.89l-48-12.9-47.93,12.9A5.55,5.55,0,0,1,52.87,161h0a5.55,5.55,0,0,1,3.89-6.78l29.47-7.9-29.47-7.9a5.6,5.6,0,0,1-3.89-6.78h0a5.39,5.39,0,0,1,6.78-3.89l47.93,12.79,48.05-12.79a5.43,5.43,0,0,1,6.78,3.89ZM93.68,68.05c4.45,0,8.12,6.34,8.12,14s-3.67,14-8.12,14-8.12-6.22-8.12-14,3.56-14,8.12-14Zm27.92,0c4.56,0,8.11,6.34,8.11,14s-3.55,14-8.11,14-8.12-6.22-8.12-14,3.67-14,8.12-14Zm-18.35,32.47c.89,0,1.66,1.22,1.66,2.78s-.77,2.89-1.66,2.89-1.67-1.33-1.67-2.89.78-2.78,1.67-2.78Zm8.78,0c.89,0,1.67,1.22,1.67,2.78s-.78,2.89-1.67,2.89-1.67-1.33-1.67-2.89.67-2.78,1.67-2.78Z"/><path class="cls-5" d="M107.58,44.69a38.56,38.56,0,0,1,23.47,69.18C128.27,124.65,117.93,130,107.58,130Zm0,107.32V140.56l48.05-12.79a5.43,5.43,0,0,1,6.78,3.89h0a5.6,5.6,0,0,1-3.89,6.78l-29.47,7.9,29.47,7.9a5.55,5.55,0,0,1,3.89,6.78h0a5.6,5.6,0,0,1-6.78,3.89Zm14-84c4.56,0,8.11,6.34,8.11,14s-3.55,14-8.11,14-8.12-6.22-8.12-14,3.67-14,8.12-14ZM112,100.52c.89,0,1.67,1.22,1.67,2.78s-.78,2.89-1.67,2.89-1.67-1.33-1.67-2.89.67-2.78,1.67-2.78Z"/></g></g></svg>