<svg xmlns="http://www.w3.org/2000/svg" viewBox="0 0 209.83 209.83"><defs><style>.cls-1{fill:#fff;}.cls-2{fill:#4e402d;}.cls-2,.cls-3,.cls-4,.cls-5{fill-rule:evenodd;}.cls-3{fill:#34281a;}.cls-4{fill:#867d71;}.cls-5{fill:#6d5c46;}</style></defs><title>steel_1</title><g id="Layer_2" data-name="Layer 2"><g id="Layer_1-2" data-name="Layer 1"><circle class="cls-1" cx="104.91" cy="104.91" r="104.89"/><path class="cls-2" d="M103.58,16.67a88.25,88.25,0,1,1-88.19,88.19,88.28,88.28,0,0,1,88.19-88.19Z"/><path class="cls-3" d="M103.58,16.67a88.25,88.25,0,1,1,0,176.49Z"/><path class="cls-4" d="M105.58,148.45l36.14-62.94a2.27,2.27,0,0,0-2-3.45l-72.51.22c-2.22,0-3.11,1.56-2,3.45l36.48,62.72c1.11,2,2.67,2,3.89,0ZM90.9,175.37,74.22,165.8a4.93,4.93,0,0,1-2.67-4.56v-8.89c0-3.34,1.56-3.79,4.12-2.23L98.13,163a10.06,10.06,0,0,0,10.57,0l22.35-12.9c2.67-1.56,4.22-1.11,4.22,2.23v8.89a4.94,4.94,0,0,1-2.66,4.56l-16.8,9.57c-8.23,4.89-16.57,4.89-24.91,0Zm79.63-94.09v19.35a4.85,4.85,0,0,1-2.56,4.56l-7.78,4.45c-2.9,1.67-4,.56-4-2.45V81.28a10,10,0,0,0-5.34-9.12l-22.35-13c-2.67-1.44-3.11-3-.22-4.67l7.78-4.56a4.94,4.94,0,0,1,5.23.11l16.79,9.68c8.23,4.78,12.46,12,12.46,21.57ZM49.2,59.48l16.68-9.67a4.94,4.94,0,0,1,5.23-.11l7.78,4.45c2.89,1.66,2.45,3.33-.11,4.78L56.32,71.83a10.28,10.28,0,0,0-5.23,9.23v25.8c0,3-1.23,4.23-4,2.56L39.3,105a4.91,4.91,0,0,1-2.56-4.67V81.06c0-9.56,4.12-16.79,12.46-21.58Z"/><path class="cls-5" d="M105.58,148.45l36.14-62.94a2.27,2.27,0,0,0-2-3.45l-36.14.11V150a2.6,2.6,0,0,0,2-1.56Zm-2,16V179a24.51,24.51,0,0,0,12.23-3.67l16.8-9.57a4.94,4.94,0,0,0,2.66-4.56v-8.89c0-3.34-1.55-3.79-4.22-2.23L108.7,163a9.85,9.85,0,0,1-5.12,1.45Zm67-83.19v19.35a4.85,4.85,0,0,1-2.56,4.56l-7.78,4.45c-2.9,1.67-4,.56-4-2.45V81.28a10,10,0,0,0-5.34-9.12l-22.35-13c-2.67-1.44-3.11-3-.22-4.67l7.78-4.56a4.94,4.94,0,0,1,5.23.11l16.79,9.68c8.23,4.78,12.46,12,12.46,21.57Z"/></g></g></svg>